# xmcd CD database file
#
# Track frame offsets:
#	150
#	11537
#	24982
#	35145
#	52602
#	62625
#	76232
#	85095
#	95622
#	105505
#	116937
#	130222
#	147170
#	163235
#	175475
#	186242
#	198422
#	211012
#	222035
#	233857
#
# Disc length: 3336 seconds
#
# Revision: 6
# Processed by: cddbd v1.5.2PL0 Copyright (c) Steve Scherf et al.
# Submitted via: CDex 1.40Release
#
DISCID=0f0d0614
DTITLE=John Lee Hooker - The very Best Of Boom Boom
DYEAR=1997
DGENRE=Blues
TTITLE0=Boom Boom
TTITLE1=Baby Lee
TTITLE2=Dimples
TTITLE3=Blues Before Sunrise
TTITLE4=Dusty Road
TTITLE5=I'm Goin' Upstairs
TTITLE6=Hobo Blues
TTITLE7=Old Time Shimmy
TTITLE8=Onions
TTITLE9=Hard Headed Woman
TTITLE10=I'm So Excited
TTITLE11=When My First Wife Left Me
TTITLE12=Thelma
TTITLE13=I'm In The Mood
TTITLE14=Let's Make It
TTITLE15=Whiskey and Wimmen
TTITLE16=Crawling King Snake
TTITLE17=No Shoes
TTITLE18=Little Wheel
TTITLE19=Process
EXTD=YEAR: 1997 ID3G: 0
EXTT0=
EXTT1=
EXTT2=
EXTT3=
EXTT4=
EXTT5=
EXTT6=
EXTT7=
EXTT8=
EXTT9=
EXTT10=
EXTT11=
EXTT12=
EXTT13=
EXTT14=
EXTT15=
EXTT16=
EXTT17=
EXTT18=
EXTT19=
PLAYORDER=
